# Blender v3.2.0 OBJ File: 'nose_low.blend'
# www.blender.org
mtllib nose_low.mtl
o Cube
v 0.746575 0.793786 -0.743293
v 0.746575 -1.252759 -0.987759
v 0.746575 0.793786 0.743293
v 0.746575 -1.252759 0.987759
v -0.398745 0.793786 -0.743293
v -0.398745 -1.252759 -0.987759
v -0.398745 0.793786 0.743293
v -0.398745 -1.252759 0.987759
v -0.398745 -1.252759 0.000000
v 0.645357 1.602834 0.000000
v -0.398745 1.936348 0.000000
v 1.518314 -1.252759 0.000000
v 0.782993 -0.393210 -1.008901
v -0.398745 0.000000 0.987759
v 0.782993 -0.393210 1.008901
v -0.398745 0.000000 -0.987759
v 1.638096 -0.336649 0.000000
v -0.398745 0.000000 0.000000
v 0.000000 -1.252759 -0.987759
v 0.000000 0.793786 0.743293
v 0.000000 -1.252759 0.987759
v 0.000000 0.793786 -0.743293
v 0.000000 -1.252759 0.000000
v 0.011190 1.806897 0.000000
v 0.000000 0.000000 -0.987759
v 0.000000 0.000000 0.987759
v -0.398745 1.936348 -0.371646
v 1.518314 -1.252759 -0.371646
v -0.398745 -1.252759 -0.371646
v 0.645357 1.602834 -0.371646
v 1.662573 -0.528612 -0.381122
v -0.398745 0.000000 -0.371646
v 0.011190 1.806897 -0.371646
v 0.000000 -1.252759 -0.371646
v -0.398745 -1.252759 0.371646
v 0.645357 1.602834 0.371646
v -0.398745 1.936348 0.371646
v 1.518314 -1.252759 0.371646
v -0.398745 0.000000 0.371646
v 1.662573 -0.528612 0.381122
v 0.000000 -1.252759 0.371646
v 0.011190 1.806897 0.371646
v -0.398745 0.167406 0.987759
v 0.746575 -0.169243 -0.987759
v 0.746575 -0.169243 0.987759
v -0.398745 0.167406 -0.987759
v 1.206631 0.220469 0.000000
v -0.398745 0.626379 0.000000
v 0.000000 0.167406 -0.987759
v 0.000000 0.167406 0.987759
v 1.206631 0.220469 -0.371646
v -0.398745 0.626379 -0.371646
v -0.398745 0.626379 0.371646
v 1.206631 0.220469 0.371646
v 0.722098 -1.007888 -0.971001
v 0.722098 -1.007888 0.971001
v -0.398745 -0.626379 -0.987759
v 1.638096 -0.963028 0.000000
v -0.398745 -0.626379 0.000000
v -0.398745 -0.626379 0.987759
v 0.000000 -0.626379 0.987759
v 0.000000 -0.626379 -0.987759
v -0.398745 -0.626379 -0.371646
v 1.601678 -1.143290 -0.343222
v 1.601678 -1.143290 0.343222
v -0.398745 -0.626379 0.371646
v 0.639108 -1.080676 -1.200965
v 0.067961 -0.161416 -1.083406
v -0.007396 -1.252758 -1.693910
v -0.578544 -0.333497 -1.576351
v 1.481337 -0.747543 -2.235429
v 0.910190 0.171718 -2.117870
v 0.664891 -0.970608 -2.769453
v 0.093744 -0.051348 -2.651894
v 0.532046 -1.109173 -1.282597
v -0.039101 -0.189913 -1.165039
v 1.272901 -0.798247 -2.467837
v 0.701754 0.121013 -2.350278
v 0.197158 -1.143346 -2.383759
v -0.373990 -0.224086 -2.266200
v 1.129634 -0.895147 -1.672766
v 0.558487 0.024113 -1.555207
v 0.318946 -0.039646 -1.737852
v 0.890093 -0.958906 -1.855410
v -0.308170 0.243152 -1.109657
v -0.847612 0.099568 -1.520969
v -0.643058 0.208979 -2.210818
v -0.011682 0.118335 -2.630194
v 0.571567 0.280304 -2.288965
v 0.049877 0.393419 -1.682469
v 1.055535 0.203885 -1.906733
v 1.626682 -0.715375 -2.024292
v 1.317444 -0.845158 -1.529565
v 0.746296 0.074103 -1.412006
v 1.145236 0.213388 -1.617156
v 1.716383 -0.705872 -1.734715
v 1.500775 -0.796360 -1.389779
v 0.929627 0.122900 -1.272220
v 0.454110 -0.028450 -1.253463
v 1.025257 -0.947710 -1.371021
v 0.657647 0.030363 -1.169624
v 1.228794 -0.888897 -1.287183
v -1.192161 0.937974 1.650303
v 0.639108 -1.080676 1.183451
v 0.067961 -0.161416 1.065892
v -0.007396 -1.252758 1.676396
v -0.578544 -0.333497 1.558837
v 1.481337 -0.747543 2.217915
v 0.910190 0.171718 2.100356
v 0.664891 -0.970608 2.751938
v 0.093744 -0.051348 2.634379
v 0.532046 -1.109173 1.265083
v -0.039101 -0.189913 1.147524
v 1.272901 -0.798247 2.450322
v 0.701754 0.121013 2.332763
v 0.197158 -1.143346 2.366244
v -0.373989 -0.224086 2.248685
v 1.129634 -0.895147 1.655251
v 0.558487 0.024113 1.537692
v 0.318946 -0.039646 1.720337
v 0.890093 -0.958906 1.837896
v -0.308170 0.243152 1.092142
v -0.847612 0.099568 1.503455
v -0.643058 0.208979 2.193303
v -0.011682 0.118335 2.612679
v 0.571567 0.280304 2.271450
v 0.049877 0.393419 1.664955
v 1.055535 0.203885 1.889218
v 1.626682 -0.715375 2.006777
v 1.317444 -0.845158 1.512050
v 0.746296 0.074103 1.394491
v 1.145236 0.213388 1.599641
v 1.716383 -0.705872 1.717200
v 1.500775 -0.796360 1.372264
v 0.929627 0.122900 1.254706
v 0.454110 -0.028450 1.235948
v 1.025257 -0.947710 1.353507
v 0.657647 0.030363 1.152110
v 1.228794 -0.888897 1.269668
vt 0.116945 0.394568
vt 0.167020 0.385980
vt 0.167677 0.480557
vt 0.119161 0.480972
vt 0.119739 0.535111
vt 0.168099 0.534935
vt 0.178241 0.226908
vt 0.178241 0.131940
vt 0.223650 0.214771
vt 0.253521 0.260181
vt 0.312271 0.437877
vt 0.312271 0.622577
vt 0.236991 0.528696
vt 0.236991 0.437877
vt 0.460011 0.218342
vt 0.590215 0.225460
vt 0.524648 0.279757
vt 0.447141 0.324880
vt 0.776550 0.455220
vt 0.775882 0.509343
vt 0.684945 0.507753
vt 0.685816 0.431514
vt 0.460808 0.128619
vt 0.592142 0.123714
vt 0.592142 0.175215
vt 0.462420 0.173413
vt 0.403091 0.437877
vt 0.403091 0.622577
vt 0.357681 0.622577
vt 0.357681 0.437877
vt 0.087421 0.226908
vt 0.087421 0.131940
vt 0.132831 0.131940
vt 0.132831 0.226908
vt 0.178241 0.081197
vt 0.132831 0.081197
vt 0.087421 0.317727
vt 0.087421 0.272317
vt 0.132831 0.272317
vt 0.132831 0.317727
vt 0.361286 0.134735
vt 0.396084 0.138885
vt 0.405558 0.172800
vt 0.366846 0.171777
vt 0.776449 0.397846
vt 0.776523 0.443134
vt 0.681311 0.415126
vt 0.688615 0.370342
vt 0.359383 0.208206
vt 0.394535 0.206780
vt 0.428559 0.327294
vt 0.376257 0.339420
vt 0.178241 0.317727
vt 0.178241 0.272317
vt 0.253521 0.272317
vt 0.253521 0.317727
vt 0.119612 0.592501
vt 0.119706 0.547195
vt 0.168132 0.547110
vt 0.168132 0.592551
vt 0.031701 0.619933
vt 0.024445 0.575115
vt 0.824901 0.397835
vt 0.824901 0.443203
vt 0.178241 0.002646
vt 0.132831 0.002646
vt 0.403091 0.389370
vt 0.357681 0.389370
vt 0.824882 0.455315
vt 0.824501 0.509816
vt 0.312271 0.389370
vt 0.236991 0.389370
vt 0.028970 0.558726
vt 0.028219 0.482447
vt 0.039397 0.407953
vt 0.478371 0.389370
vt 0.478371 0.437877
vt 0.773552 0.595826
vt 0.695994 0.582296
vt 0.380596 0.008033
vt 0.430208 0.018831
vt 0.823677 0.604513
vt 0.478371 0.528696
vt 0.448881 0.021426
vt 0.526692 0.067741
vt 0.087421 0.081197
vt 0.087421 0.002646
vt 0.012141 0.317727
vt 0.012141 0.272317
vt 0.012141 0.260181
vt 0.042011 0.214771
vt 0.012141 0.363137
vt 0.087421 0.363137
vt 0.340344 0.171043
vt 0.350409 0.216657
vt 0.362689 0.007568
vt 0.352760 0.126137
vt 0.132831 0.363137
vt 0.178241 0.363137
vt 0.824881 0.352458
vt 0.776410 0.352480
vt 0.028702 0.637802
vt 0.119534 0.637909
vt 0.168068 0.637983
vt 0.253521 0.363137
vt 0.357736 0.339458
vt 0.685639 0.352481
vt 0.980944 0.085033
vt 0.884339 0.096969
vt 0.842869 0.024715
vt 0.939474 0.012780
vt 0.876297 0.174523
vt 0.876297 0.271862
vt 0.812308 0.232867
vt 0.812308 0.135528
vt 0.566826 0.897542
vt 0.610240 0.810421
vt 0.637837 0.836901
vt 0.594423 0.924022
vt 0.863565 0.668221
vt 0.958541 0.689539
vt 0.983457 0.769814
vt 0.888481 0.748496
vt 0.249334 0.712663
vt 0.160707 0.719667
vt 0.167908 0.682105
vt 0.249334 0.675669
vt 0.514789 0.899432
vt 0.514789 0.982584
vt 0.498306 0.983887
vt 0.477910 0.902347
vt 0.748632 0.122659
vt 0.733038 0.210314
vt 0.719163 0.194532
vt 0.710855 0.098144
vt 0.249334 0.819676
vt 0.176582 0.801721
vt 0.676114 0.296224
vt 0.641909 0.203930
vt 0.725730 0.214708
vt 0.759935 0.307002
vt 0.989174 0.099373
vt 0.892570 0.111309
vt 0.332227 0.789420
vt 0.332227 0.706111
vt 0.876297 0.317718
vt 0.812308 0.250835
vt 0.514789 0.810529
vt 0.477910 0.820668
vt 0.332227 0.689577
vt 0.661935 0.856973
vt 0.618521 0.944094
vt 0.960992 0.199292
vt 0.960992 0.296631
vt 0.605142 0.098401
vt 0.636503 0.014950
vt 0.720411 0.016895
vt 0.635447 0.186950
vt 0.960992 0.342488
vt 0.759935 0.040820
vt 0.838829 0.102592
vt 0.797359 0.030338
vt 0.448996 0.832815
vt 0.448996 0.904632
vt 0.420771 0.906863
vt 0.420771 0.856790
vt 0.177740 0.652323
vt 0.249334 0.646665
vt 0.858449 0.639672
vt 0.953425 0.660989
vt 0.650679 0.962461
vt 0.694093 0.875339
vt 0.744122 0.877422
vt 0.700708 0.964543
vt 0.249334 0.618352
vt 0.279712 0.637690
vt 0.286705 0.663906
vt 0.199417 0.622297
vt 0.983457 0.632847
vt 0.888481 0.611529
vt 0.880746 0.585523
vt 0.975722 0.606840
vt 0.779697 0.871828
vt 0.736283 0.958949
vt 0.469128 0.940529
vt 0.442442 0.935624
vt 0.281762 0.968797
vt 0.281762 0.871458
vt 0.358555 0.839160
vt 0.358555 0.936499
vt 0.101758 0.941988
vt 0.101758 0.844648
vt 0.165747 0.883643
vt 0.165747 0.980982
vt 0.882671 0.359841
vt 0.979371 0.370976
vt 0.963878 0.405944
vt 0.867178 0.394809
vt 0.427893 0.683315
vt 0.522869 0.704633
vt 0.547785 0.784907
vt 0.452809 0.763590
vt 0.747790 0.731510
vt 0.659164 0.738514
vt 0.666365 0.700952
vt 0.747790 0.694516
vt 0.930319 0.884021
vt 0.930319 0.967173
vt 0.913837 0.968476
vt 0.893441 0.886935
vt 0.652086 0.465089
vt 0.636492 0.552744
vt 0.622618 0.536962
vt 0.614309 0.440574
vt 0.747790 0.838523
vt 0.675038 0.820568
vt 0.579568 0.638654
vt 0.545363 0.546360
vt 0.629184 0.557138
vt 0.663389 0.649432
vt 0.266521 0.975207
vt 0.266521 0.877868
vt 0.830684 0.808267
vt 0.830684 0.724958
vt 0.101758 0.798792
vt 0.165747 0.865675
vt 0.930319 0.795118
vt 0.893441 0.805256
vt 0.830684 0.708424
vt 0.953217 0.435438
vt 0.856517 0.424303
vt 0.017063 0.917218
vt 0.017063 0.819879
vt 0.508597 0.440831
vt 0.539957 0.357380
vt 0.623865 0.359325
vt 0.538902 0.529380
vt 0.017063 0.774022
vt 0.663389 0.383250
vt 0.281762 0.825601
vt 0.358555 0.793304
vt 0.864527 0.817404
vt 0.864527 0.889221
vt 0.836302 0.891451
vt 0.836302 0.841379
vt 0.676197 0.671170
vt 0.747790 0.665512
vt 0.422777 0.654766
vt 0.517753 0.676083
vt 0.850205 0.460795
vt 0.946905 0.471930
vt 0.961992 0.519675
vt 0.865292 0.508540
vt 0.747790 0.637199
vt 0.778169 0.656537
vt 0.785162 0.682753
vt 0.697873 0.641144
vt 0.547785 0.647941
vt 0.452809 0.626623
vt 0.445074 0.600616
vt 0.540050 0.621934
vt 0.979371 0.551215
vt 0.882671 0.540081
vt 0.884658 0.925118
vt 0.857973 0.920212
vn 0.2179 0.7925 0.5696
vn -0.5109 0.7268 0.4590
vn -0.6912 0.2491 0.6784
vn 0.0436 0.3407 0.9392
vn 0.0234 0.1961 0.9803
vn -0.6677 0.1377 0.7315
vn -1.0000 -0.0000 0.0000
vn -0.5109 0.7268 -0.4590
vn -0.6912 0.2491 -0.6784
vn -0.6677 0.1377 -0.7315
vn 0.0000 -1.0000 0.0000
vn 0.6082 -0.6865 0.3985
vn 0.2602 -0.6398 0.7232
vn 0.0059 -0.7036 0.7105
vn 0.8358 0.3983 0.3779
vn 0.5570 0.6765 0.4817
vn 0.4509 0.3183 0.8339
vn 0.3517 0.2332 0.9066
vn 0.0234 0.1961 -0.9803
vn 0.0436 0.3407 -0.9392
vn 0.4509 0.3183 -0.8339
vn 0.3517 0.2332 -0.9066
vn 0.8358 0.3983 -0.3779
vn 0.5570 0.6766 -0.4817
vn 0.6803 0.7329 0.0000
vn 0.8818 0.4717 0.0000
vn 0.6082 -0.6865 -0.3985
vn 0.5202 -0.8541 0.0000
vn -0.5911 0.8066 0.0000
vn 0.2179 0.7925 -0.5696
vn 0.3037 0.9528 0.0000
vn 0.8973 -0.2393 -0.3710
vn 0.8876 0.1396 -0.4389
vn 0.9333 0.3591 0.0000
vn 0.9810 -0.1942 0.0000
vn -0.0031 -0.0063 -1.0000
vn 0.0009 0.0126 -0.9999
vn 0.3321 0.0736 -0.9404
vn 0.2953 -0.0273 -0.9550
vn 0.8973 -0.2393 0.3710
vn 0.8876 0.1396 0.4389
vn 0.3321 0.0736 0.9404
vn 0.2953 -0.0273 0.9550
vn -0.7071 0.0000 -0.7071
vn -0.0031 -0.0063 1.0000
vn 0.0009 0.0126 0.9999
vn -0.7071 0.0000 0.7071
vn -0.7071 -0.7071 0.0000
vn -0.5774 -0.5774 0.5774
vn -0.5774 -0.5774 -0.5774
vn 0.0059 -0.7036 -0.7105
vn 0.2602 -0.6398 -0.7232
vn -0.1201 -0.8777 0.4639
vn -0.2910 0.0802 0.9533
vn -0.7990 -0.5322 0.2798
vn -0.4449 -0.8762 0.1852
vn -0.3301 -0.8186 -0.4700
vn -0.7232 -0.3752 -0.5798
vn -0.1360 0.0874 -0.9869
vn 0.1435 -0.5183 -0.8430
vn 0.6350 -0.3796 -0.6728
vn 0.4617 0.6900 -0.5575
vn 0.2341 0.9053 -0.3545
vn 0.7659 -0.3618 -0.5315
vn 0.2549 -0.8815 0.3974
vn -0.1860 0.8292 0.5272
vn -0.1930 0.4762 0.8579
vn 0.3086 -0.5735 0.7589
vn 0.3005 -0.9518 -0.0619
vn 0.2822 0.8698 0.4046
vn 0.5778 0.8035 -0.1431
vn 0.3130 0.9118 0.2657
vn -0.7543 0.4375 -0.4894
vn -0.2295 0.4831 -0.8449
vn 0.3228 0.9151 -0.2417
vn 0.8683 -0.3095 -0.3877
vn -0.9347 0.2126 0.2850
vn -0.1090 0.4987 0.8599
vn -0.6271 0.7789 0.0113
vn 0.2083 0.7408 0.6387
vn 0.4516 0.8767 0.1657
vn 0.0533 -0.9960 -0.0724
vn 0.9634 -0.2573 0.0749
vn 0.6863 -0.4460 0.5745
vn 0.2382 -0.6545 0.7175
vn -0.5406 -0.8410 -0.0230
vn -0.9824 0.1656 0.0866
vn -0.2225 0.5167 0.8268
vn 0.1201 0.8777 0.4639
vn 0.2910 -0.0802 0.9533
vn 0.7990 0.5322 0.2798
vn 0.4449 0.8762 0.1852
vn 0.3301 0.8186 -0.4700
vn 0.7232 0.3752 -0.5798
vn 0.1360 -0.0874 -0.9869
vn -0.1435 0.5183 -0.8430
vn -0.6350 0.3796 -0.6728
vn -0.4617 -0.6900 -0.5575
vn -0.2341 -0.9053 -0.3545
vn -0.7659 0.3618 -0.5315
vn -0.2549 0.8815 0.3974
vn 0.1860 -0.8292 0.5272
vn 0.1930 -0.4762 0.8579
vn -0.3086 0.5735 0.7589
vn -0.3005 0.9518 -0.0619
vn -0.2822 -0.8698 0.4046
vn -0.5778 -0.8035 -0.1431
vn -0.3130 -0.9118 0.2657
vn 0.7543 -0.4375 -0.4894
vn 0.2295 -0.4831 -0.8449
vn -0.3228 -0.9151 -0.2417
vn -0.8683 0.3095 -0.3877
vn 0.9347 -0.2126 0.2850
vn 0.1090 -0.4987 0.8599
vn 0.6271 -0.7789 0.0113
vn -0.2083 -0.7408 0.6387
vn -0.4516 -0.8767 0.1657
vn -0.0533 0.9960 -0.0724
vn -0.9634 0.2573 0.0749
vn -0.6863 0.4460 0.5745
vn -0.2382 0.6545 0.7175
vn 0.5406 0.8410 -0.0230
vn 0.9824 -0.1656 0.0866
vn 0.2225 -0.5167 0.8268
usemtl Material
s 1
f 42/1/1 37/2/2 7/3/3 20/4/4
f 50/5/5 20/4/4 7/3/3 43/6/6
f 52/7/7 27/8/8 5/9/9 46/10/10
f 41/11/11 38/12/12 4/13/13 21/14/14
f 54/15/15 36/16/16 3/17/17 45/18/18
f 49/19/19 22/20/20 1/21/21 44/22/22
f 51/23/23 30/24/24 10/25/25 47/26/26
f 34/27/11 28/28/27 12/29/28 23/30/11
f 53/31/7 37/32/2 11/33/29 48/34/7
f 33/35/30 27/8/8 11/33/29 24/36/31
f 66/37/7 39/38/7 18/39/7 59/40/7
f 64/41/32 31/42/33 17/43/34 58/44/35
f 62/45/36 25/46/37 13/47/38 55/48/39
f 65/49/40 40/50/41 15/51/42 56/52/43
f 63/53/7 32/54/7 16/55/44 57/56/44
f 61/57/45 26/58/46 14/59/47 60/60/47
f 56/61/43 15/62/42 26/58/46 61/57/45
f 57/63/44 16/64/44 25/46/37 62/45/36
f 30/65/24 33/35/30 24/36/31 10/66/25
f 29/67/48 34/27/11 23/30/11 9/68/48
f 46/69/10 5/70/9 22/20/20 49/19/19
f 35/71/48 41/11/11 21/14/14 8/72/49
f 45/73/18 3/74/17 20/4/4 50/5/5
f 36/75/16 42/1/1 20/4/4 3/74/17
f 6/76/50 19/77/51 34/27/11 29/67/48
f 1/21/21 22/20/20 33/78/30 30/79/24
f 59/40/7 18/39/7 32/54/7 63/53/7
f 55/80/39 13/81/38 31/42/33 64/41/32
f 22/20/20 5/70/9 27/82/8 33/78/30
f 19/77/51 2/83/52 28/28/27 34/27/11
f 44/84/22 1/85/21 30/24/24 51/23/23
f 48/34/7 11/33/29 27/8/8 52/7/7
f 10/66/25 24/36/31 42/86/1 36/87/16
f 9/68/48 23/30/11 41/11/11 35/71/48
f 58/44/35 17/43/34 40/50/41 65/49/40
f 60/88/47 14/89/47 39/38/7 66/37/7
f 43/90/6 7/91/3 37/32/2 53/31/7
f 47/26/26 10/25/25 36/16/16 54/15/15
f 23/30/11 12/29/28 38/12/12 41/11/11
f 24/36/31 11/33/29 37/32/2 42/86/1
f 17/43/34 47/26/26 54/15/15 40/50/41
f 14/89/47 43/90/6 53/31/7 39/38/7
f 18/39/7 48/34/7 52/7/7 32/54/7
f 13/81/38 44/84/22 51/23/23 31/42/33
f 15/62/42 45/73/18 50/5/5 26/58/46
f 16/64/44 46/69/10 49/19/19 25/46/37
f 39/38/7 53/31/7 48/34/7 18/39/7
f 31/42/33 51/23/23 47/26/26 17/43/34
f 25/46/37 49/19/19 44/22/22 13/47/38
f 40/50/41 54/15/15 45/18/18 15/51/42
f 32/54/7 52/7/7 46/10/10 16/55/44
f 26/58/46 50/5/5 43/6/6 14/59/47
f 8/92/49 60/88/47 66/37/7 35/93/48
f 12/94/28 58/44/35 65/49/40 38/95/12
f 2/96/52 55/80/39 64/41/32 28/97/27
f 9/98/48 59/40/7 63/53/7 29/99/48
f 6/100/50 57/63/44 62/45/36 19/101/51
f 4/102/13 56/61/43 61/57/45 21/103/14
f 21/103/14 61/57/45 60/60/47 8/104/49
f 29/99/48 63/53/7 57/56/44 6/105/50
f 38/95/12 65/49/40 56/52/43 4/106/13
f 19/101/51 62/45/36 55/48/39 2/107/52
f 28/97/27 64/41/32 58/44/35 12/94/28
f 35/93/48 66/37/7 59/40/7 9/98/48
f 75/108/53 76/109/54 70/110/55 69/111/56
f 79/112/57 80/113/58 74/114/59 73/115/60
f 77/116/61 78/117/62 72/118/63 71/119/64
f 81/120/65 82/121/66 68/122/67 67/123/68
f 84/124/69 77/125/61 71/126/64 81/127/65
f 83/128/70 76/129/54 68/130/67 82/131/66
f 83/132/70 78/133/62 89/134/71 90/135/72
f 79/136/57 73/137/60 77/125/61 84/124/69
f 73/138/60 74/139/59 78/140/62 77/141/61
f 67/142/68 68/143/67 76/109/54 75/108/53
f 69/144/56 79/136/57 84/124/69 75/145/53
f 74/114/59 80/113/58 87/146/73 88/147/74
f 78/148/62 83/128/70 82/131/66 72/149/63
f 75/145/53 84/124/69 81/127/65 67/150/68
f 71/119/64 72/118/63 91/151/75 92/152/76
f 69/153/56 70/154/55 80/113/58 79/112/57
f 87/155/73 86/156/77 85/157/78 90/135/72
f 88/158/74 87/155/73 90/135/72 89/134/71
f 80/113/58 70/154/55 86/159/77 87/146/73
f 78/140/62 74/139/59 88/158/74 89/134/71
f 76/160/54 83/132/70 90/135/72 85/157/78
f 70/110/55 76/109/54 85/161/78 86/162/77
f 91/163/75 94/164/79 98/165/80 95/166/81
f 72/149/63 82/131/66 94/164/79 91/163/75
f 81/127/65 71/126/64 92/167/76 93/168/82
f 82/121/66 81/120/65 93/169/82 94/170/79
f 96/171/83 95/172/81 98/173/80 97/174/84
f 92/152/76 91/151/75 95/172/81 96/171/83
f 93/168/82 97/175/84 102/176/85 100/177/86
f 93/168/82 92/167/76 96/178/83 97/175/84
f 99/179/87 100/180/86 102/181/85 101/182/88
f 97/174/84 98/173/80 101/183/88 102/184/85
f 94/170/79 93/169/82 100/180/86 99/179/87
f 98/165/80 94/164/79 99/185/87 101/186/88
f 112/187/89 113/188/90 107/189/91 106/190/92
f 116/191/93 117/192/94 111/193/95 110/194/96
f 114/195/97 115/196/98 109/197/99 108/198/100
f 118/199/101 119/200/102 105/201/103 104/202/104
f 121/203/105 114/204/97 108/205/100 118/206/101
f 120/207/106 113/208/90 105/209/103 119/210/102
f 120/211/106 115/212/98 126/213/107 127/214/108
f 116/215/93 110/216/96 114/204/97 121/203/105
f 110/217/96 111/218/95 115/219/98 114/220/97
f 104/221/104 105/222/103 113/188/90 112/187/89
f 106/223/92 116/215/93 121/203/105 112/224/89
f 111/193/95 117/192/94 124/225/109 125/226/110
f 115/227/98 120/207/106 119/210/102 109/228/99
f 112/224/89 121/203/105 118/206/101 104/229/104
f 108/198/100 109/197/99 128/230/111 129/231/112
f 106/232/92 107/233/91 117/192/94 116/191/93
f 124/234/109 123/235/113 122/236/114 127/214/108
f 125/237/110 124/234/109 127/214/108 126/213/107
f 117/192/94 107/233/91 123/238/113 124/225/109
f 115/219/98 111/218/95 125/237/110 126/213/107
f 113/239/90 120/211/106 127/214/108 122/236/114
f 107/189/91 113/188/90 122/240/114 123/241/113
f 128/242/111 131/243/115 135/244/116 132/245/117
f 109/228/99 119/210/102 131/243/115 128/242/111
f 118/206/101 108/205/100 129/246/112 130/247/118
f 119/200/102 118/199/101 130/248/118 131/249/115
f 133/250/119 132/251/117 135/252/116 134/253/120
f 129/231/112 128/230/111 132/251/117 133/250/119
f 130/247/118 134/254/120 139/255/121 137/256/122
f 130/247/118 129/246/112 133/257/119 134/254/120
f 136/258/123 137/259/122 139/260/121 138/261/124
f 134/253/120 135/252/116 138/262/124 139/263/121
f 131/249/115 130/248/118 137/259/122 136/258/123
f 135/244/116 131/243/115 136/264/123 138/265/124
